<svg width="12" height="11" viewBox="0 0 12 11" fill="none" xmlns="http://www.w3.org/2000/svg">
<mask id="path-1-inside-1_1_10945" fill="white">
<path d="M11.1568 6.43033H6.64813V11.0026H4.84888V6.43033H0.361328V4.80042H4.84888V0.207031H6.64813V4.80042H11.1568V6.43033Z"/>
</mask>
<path d="M11.1568 6.43033H6.64813V11.0026H4.84888V6.43033H0.361328V4.80042H4.84888V0.207031H6.64813V4.80042H11.1568V6.43033Z" fill="black"/>
<path d="M11.1568 6.43033V9.35232H14.0788V6.43033H11.1568ZM6.64813 6.43033V3.50834H3.72614V6.43033H6.64813ZM6.64813 11.0026V13.9245H9.57012V11.0026H6.64813ZM4.84888 11.0026H1.92689V13.9245H4.84888V11.0026ZM4.84888 6.43033H7.77087V3.50834H4.84888V6.43033ZM0.361328 6.43033H-2.56066V9.35232H0.361328V6.43033ZM0.361328 4.80042V1.87843H-2.56066V4.80042H0.361328ZM4.84888 4.80042V7.72241H7.77087V4.80042H4.84888ZM4.84888 0.207031V-2.71496H1.92689V0.207031H4.84888ZM6.64813 0.207031H9.57012V-2.71496H6.64813V0.207031ZM6.64813 4.80042H3.72614V7.72241H6.64813V4.80042ZM11.1568 4.80042H14.0788V1.87843H11.1568V4.80042ZM11.1568 3.50834H6.64813V9.35232H11.1568V3.50834ZM3.72614 6.43033V11.0026H9.57012V6.43033H3.72614ZM6.64813 8.08056H4.84888V13.9245H6.64813V8.08056ZM7.77087 11.0026V6.43033H1.92689V11.0026H7.77087ZM4.84888 3.50834H0.361328V9.35232H4.84888V3.50834ZM3.28332 6.43033V4.80042H-2.56066V6.43033H3.28332ZM0.361328 7.72241H4.84888V1.87843H0.361328V7.72241ZM7.77087 4.80042V0.207031H1.92689V4.80042H7.77087ZM4.84888 3.12902H6.64813V-2.71496H4.84888V3.12902ZM3.72614 0.207031V4.80042H9.57012V0.207031H3.72614ZM6.64813 7.72241H11.1568V1.87843H6.64813V7.72241ZM8.23486 4.80042V6.43033H14.0788V4.80042H8.23486Z" fill="white" mask="url(#path-1-inside-1_1_10945)"/>
</svg>
