<svg width="17" height="14" viewBox="0 0 17 14" fill="none" xmlns="http://www.w3.org/2000/svg">
<path fill-rule="evenodd" clip-rule="evenodd" d="M0.506836 4.78063C0.506836 2.37174 2.62015 0.516968 5.10073 0.516968C6.37941 0.516968 7.50458 1.11653 8.312 1.89231C9.11942 1.11653 10.2446 0.516968 11.5233 0.516968C14.0038 0.516968 16.1172 2.37174 16.1172 4.78063C16.1172 6.43075 15.4135 7.88187 14.4385 9.10848C13.4653 10.333 12.1922 11.3722 10.9733 12.2167C10.5077 12.5392 10.0367 12.8367 9.60566 13.0563C9.2009 13.2624 8.73548 13.4512 8.312 13.4512C7.88851 13.4512 7.42309 13.2624 7.01833 13.0563C6.58726 12.8367 6.11626 12.5392 5.65069 12.2167C4.43176 11.3722 3.15869 10.333 2.18545 9.10848C1.21053 7.88187 0.506836 6.43075 0.506836 4.78063ZM5.10073 1.855C3.246 1.855 1.84486 3.21898 1.84486 4.78063C1.84486 6.03258 2.37632 7.19818 3.23292 8.27594C4.09122 9.35581 5.24606 10.3086 6.41266 11.1168C6.8541 11.4226 7.26989 11.6828 7.62554 11.864C8.0075 12.0585 8.22874 12.1132 8.312 12.1132C8.39525 12.1132 8.61649 12.0585 8.99845 11.8639C9.3541 11.6828 9.7699 11.4226 10.2113 11.1168C11.3779 10.3086 12.5328 9.35581 13.3911 8.27594C14.2477 7.19818 14.7791 6.03258 14.7791 4.78063C14.7791 3.21898 13.378 1.855 11.5233 1.855C10.4581 1.855 9.46341 2.49138 8.84236 3.2991C8.71572 3.4638 8.51975 3.56032 8.312 3.56032C8.10424 3.56032 7.90827 3.4638 7.78163 3.2991C7.16058 2.49138 6.16593 1.855 5.10073 1.855Z" fill="#323142"/>
</svg>
